:SAMPLES-PER-SECOND 30
:FULLY-SPECIFIED
:DEGREES
1008
root  -15.4536 39.0312 -1.39366 -73.3105 -81.4173 66.3654
RightUpLeg  -24.93 -16.1756 -5.94125
RightLeg  25.7182 0.804992 0.080181
RightFoot  1.1114 -1.0943 10.0811
RightToes  0.000482159 0.542163 -0.142577
Spine  14.8155 -0.436966 -5.81802
Spine1  10.4294 -1.0273 -1.23269
HEad  6.62492 -0.1094 0.418598
LeftShoulder1  8.87937 -13.5242 -45.4596
LeftArm  -12.9242 1.734 -12.8935
LeftForeArm  24.7894 -13.1006 -4.60147
LeftHand  -0.25398 0.0180481 5.50724
RightShoulder  4.74288 8.58506 33.2908
RightArm  -6.41381 3.20116 30.5788
RightForeArm  -5.16535 22.0513 5.21688
RightHand  -1.22454 2.49675 -18.1546
LeftUpLeg  8.90567 11.3338 -7.38003
LeftLeg  18.6243 13.381 0.831627
LeftFoot  -20.4177 0.00392991 -1.50046
LeftToes  1.06246e-005 4.65854e-005 -8.18503e-006
1009
root  -16.7075 38.7953 -1.29566 -68.5604 -80.197 61.8542
RightUpLeg  -24.5383 -16.4021 -6.25094
RightLeg  14.062 0.592546 0.705419
RightFoot  1.74117 -1.08555 9.54331
RightToes  0.000482159 0.542163 -0.142577
Spine  14.638 -0.604594 -6.71213
Spine1  10.7678 -1.40186 -0.688509
HEad  6.11556 -0.84984 0.523293
LeftShoulder1  9.05458 -13.893 -45.3707
LeftArm  -14.4113 -3.10987 -11.161
LeftForeArm  22.4285 -15.6729 -4.1889
LeftHand  -0.25398 0.0180481 5.50724
RightShoulder  4.75913 8.68731 33.0958
RightArm  -6.89324 5.12409 29.8851
RightForeArm  -4.49901 25.1581 5.59181
RightHand  -1.24751 2.39484 -18.7086
LeftUpLeg  11.0346 10.4686 -8.06594
LeftLeg  18.1783 13.2239 0.605501
LeftFoot  -21.9705 -0.0372491 -1.80746
LeftToes  1.06246e-005 4.65854e-005 -8.18503e-006
1010
root  -18.0558 38.4993 -1.18035 -64.2899 -78.9874 57.8068
RightUpLeg  -22.9849 -11.4186 -9.62007
RightLeg  3.63299 -4.66259 2.47496
RightFoot  0.899754 -1.03541 9.72039
RightToes  0.000482159 0.542163 -0.142577
Spine  14.5446 -0.856507 -6.8194
Spine1  11.0238 -1.65665 -0.633412
HEad  5.79137 -1.8282 0.432353
LeftShoulder1  9.24634 -14.2488 -45.4042
LeftArm  -15.8547 -7.47393 -9.98861
LeftForeArm  21.1294 -18.7625 -3.82011
LeftHand  -0.25398 0.0180481 5.50724
RightShoulder  4.76809 8.74372 32.9894
RightArm  -7.54306 6.29099 29.3192
RightForeArm  -3.84733 28.0108 6.25517
RightHand  -1.36786 2.72231 -19.6722
LeftUpLeg  13.4253 10.0865 -8.38568
LeftLeg  17.713 12.2275 0.284332
LeftFoot  -23.6395 -0.158481 -2.78226
LeftToes  1.06246e-005 4.65854e-005 -8.18503e-006
1011
root  -19.5419 38.1036 -1.06888 -59.5899 -77.9131 53.4883
RightUpLeg  -22.3143 -10.4918 -10.8887
RightLeg  -2.86726 -5.3984 3.57647
RightFoot  -0.679488 -1.01301 10.7128
RightToes  0.000482159 0.542163 -0.142577
Spine  14.2658 -1.21279 -6.39013
Spine1  11.1743 -1.91031 -0.730965
HEad  5.56801 -2.8113 -0.0164151
LeftShoulder1  9.40442 -14.5478 -45.4162
LeftArm  -17.6385 -11.0796 -9.59766
LeftForeArm  21.2912 -22.3514 -3.79471
LeftHand  -0.25398 0.0180481 5.50724
RightShoulder  4.76992 8.76835 32.9264
RightArm  -7.45358 7.05476 28.8698
RightForeArm  -3.38071 30.2761 6.79012
RightHand  -1.48669 3.16218 -20.2875
LeftUpLeg  15.5156 10.9589 -7.90486
LeftLeg  18.1893 9.84907 0.27209
LeftFoot  -25.3244 -0.275077 -3.49649
LeftToes  1.06246e-005 4.65854e-005 -8.18503e-006
1012
root  -21.0692 37.7245 -0.982271 -54.1802 -77.2669 48.7276
RightUpLeg  -23.1465 -11.0706 -10.7213
RightLeg  -3.43928 -5.56365 4.20138
RightFoot  0.834187 -0.992588 9.47019
RightToes  0.000482159 0.542163 -0.142577
Spine  14.0892 -1.53678 -5.45298
Spine1  11.3679 -2.29911 -0.272873
HEad  5.04763 -3.66213 -0.720175
LeftShoulder1  9.47686 -14.71 -45.3559
LeftArm  -20.1601 -13.7369 -10.052
LeftForeArm  23.3141 -26.3771 -4.40283
LeftHand  -0.25398 0.0180481 5.50724
RightShoulder  4.77066 8.82657 32.7498
RightArm  -6.82889 7.78755 28.6407
RightForeArm  -2.49144 31.643 7.09395
RightHand  -1.48736 3.19376 -20.2207
LeftUpLeg  17.0544 12.8946 -6.48629
LeftLeg  19.3323 6.59677 0.847028
LeftFoot  -26.7394 -0.351068 -3.77859
LeftToes  1.06246e-005 4.65854e-005 -8.18503e-006
1013
root  -22.5382 37.4192 -0.889799 -48.4892 -77.6579 43.5388
RightUpLeg  -25.3812 -11.2996 -9.35674
RightLeg  1.05352 -6.38313 4.25711
RightFoot  7.26042 -0.858343 5.62147
RightToes  0.000482159 0.542163 -0.142577
Spine  15.1121 -1.87308 -2.89928
Spine1  11.2515 -2.5514 0.0327165
HEad  3.93204 -4.25434 -1.48135
LeftShoulder1  9.55903 -14.7826 -45.5751
LeftArm  -22.2904 -15.4834 -10.795
LeftForeArm  25.9526 -30.7056 -5.25949
LeftHand  -0.25398 0.0180481 5.50724
RightShoulder  4.8514 9.05161 32.6985
RightArm  -5.85275 8.81465 28.4994
RightForeArm  -1.71097 31.7103 7.06932
RightHand  -1.46592 3.15649 -20.0217
LeftUpLeg  17.9728 14.546 -4.18362
LeftLeg  21.6488 3.73084 1.76182
LeftFoot  -27.8404 -0.737284 -6.17851
LeftToes  1.06246e-005 4.65854e-005 -8.18503e-006
1014
root  -23.9496 37.1098 -0.770921 -42.3054 -79.296 37.3645
RightUpLeg  -28.7355 -13.3724 -5.61927
RightLeg  8.60423 -3.45298 3.3522
RightFoot  14.3639 -0.393126 2.12283
RightToes  0.000482159 0.542163 -0.142577
Spine  17.8837 -2.50809 1.63101
Spine1  10.3186 -2.30774 -1.00013
HEad  2.17835 -4.38498 -2.22817
LeftShoulder1  9.75178 -14.9404 -46.1136
LeftArm  -23.6698 -16.5645 -11.2908
LeftForeArm  28.6557 -34.6752 -6.08267
LeftHand  -0.25398 0.0180481 5.50724
RightShoulder  5.11579 9.5855 33.1375
RightArm  -4.34675 10.5947 28.297
RightForeArm  -2.07042 29.8804 6.61001
RightHand  -1.54378 3.58274 -20.1009
LeftUpLeg  17.3804 14.0219 -1.45965
LeftLeg  27.5376 3.74383 2.49489
LeftFoot  -27.4286 -1.48961 -11.8381
LeftToes  1.06246e-005 4.65854e-005 -8.18503e-006
